<svg width="141" height="100" viewBox="0 0 141 100" fill="none" xmlns="http://www.w3.org/2000/svg">
<g clip-path="url(#clip0_8:198)">
<path fill-rule="evenodd" clip-rule="evenodd" d="M56.6462 35.6065C54.646 37.4118 51.9936 38.5113 49.0839 38.5113C42.856 38.5113 37.8074 33.4744 37.8074 27.2609C37.8074 25.5163 38.2054 23.8644 38.9159 22.3907C36.8349 21.897 34.6637 21.6357 32.4314 21.6357C17.0067 21.6357 4.50244 34.111 4.50244 49.5001C4.50244 64.8892 17.0067 77.3645 32.4314 77.3645C47.8561 77.3645 60.3603 64.8892 60.3603 49.5001C60.3603 44.4407 59.0088 39.6962 56.6462 35.6065Z" fill="#082E8E"/>
<ellipse cx="32.411" cy="49.4999" rx="27.92" ry="27.9096" fill="#0F26CE"/>
<path d="M15.1758 58.0033H17.772V39.5317H15.1758V58.0033Z" fill="white"/>
<path d="M29.2974 58.003H31.8411V51.2789C31.8411 49.3167 32.8114 46.7788 35.565 46.7788C37.2696 46.7788 38.6857 47.9038 38.6857 50.1016V58.003H41.2294V51.2789C41.2294 49.3167 42.1997 46.7788 44.9533 46.7788C46.6579 46.7788 48.074 47.9038 48.074 50.1016V58.003H50.6177V49.9969C50.6177 46.5171 48.4936 44.4502 45.4778 44.4502C43.2749 44.4502 41.9113 45.3136 40.6787 47.1974C39.8395 45.4183 38.1874 44.4502 36.0895 44.4502C33.8866 44.4502 32.5492 45.3659 31.7887 46.7526V44.7642H29.2974V58.003Z" fill="white"/>
<path d="M62.4424 54.7146C63.452 57.4775 65.6732 59.0029 68.5867 59.0029C72.4811 59.0029 75.1061 56.3551 75.1061 52.5849V38.2236H71.2983V52.5273C71.2983 54.2541 70.4041 55.5205 68.6444 55.5205C67.0002 55.5205 66.1348 54.5132 65.4424 52.9015L62.4424 54.7146Z" fill="#0F26CE"/>
<path d="M85.1621 43.6343C80.6909 43.6343 77.3735 47.0016 77.3735 51.3186C77.3735 55.6356 80.6909 59.0029 85.1621 59.0029C89.6911 59.0029 92.9508 55.6356 92.9508 51.3186C92.9508 47.0016 89.6911 43.6343 85.1621 43.6343ZM85.1621 47.0303C87.4699 47.0303 89.143 48.901 89.143 51.3186C89.143 53.7361 87.4699 55.6068 85.1621 55.6068C82.8544 55.6068 81.1813 53.7361 81.1813 51.3186C81.1813 48.901 82.8544 47.0303 85.1621 47.0303Z" fill="#0F26CE"/>
<path d="M102.74 55.6644C100.576 55.6644 98.8457 53.9376 98.8457 51.2898C98.8457 48.642 100.576 46.9728 102.74 46.9728C104.817 46.9728 106.634 48.6996 106.634 51.2898C106.634 53.9088 104.817 55.6644 102.74 55.6644ZM98.7591 56.5566C99.6822 58.1682 101.875 59.0029 103.519 59.0029C107.327 59.0029 110.413 55.8371 110.413 51.3186C110.413 46.9152 107.471 43.6343 103.461 43.6343C101.701 43.6343 99.8841 44.4689 98.9899 45.8504V38.2236H95.2398V58.6575H98.7591V56.5566Z" fill="#0F26CE"/>
<ellipse cx="23.6197" cy="41.7253" rx="2.20467" ry="2.20385" fill="white"/>
<path d="M23.5411 43.6887C23.5173 44.2606 22.8186 44.8712 22.4841 45.093C24.3351 45.093 25.8237 43.6287 25.8237 41.7261L23.5411 43.6887Z" fill="white"/>
</g>
<defs>
<clipPath id="clip0_8:198">
<rect width="166" height="163" fill="white" transform="translate(-25 -32)"/>
</clipPath>
</defs>
</svg>
