<svg width="16" height="16" viewBox="0 0 16 16" fill="none" xmlns="http://www.w3.org/2000/svg">
<path d="M12 5.3335C12 4.27263 11.5786 3.25521 10.8284 2.50507C10.0783 1.75492 9.06087 1.3335 8 1.3335C6.93913 1.3335 5.92172 1.75492 5.17157 2.50507C4.42143 3.25521 4 4.27263 4 5.3335C4 10.0002 2 11.3335 2 11.3335H14C14 11.3335 12 10.0002 12 5.3335Z" stroke="#3457D5" stroke-linecap="round" stroke-linejoin="round"/>
<path d="M9.15335 14C9.03614 14.2021 8.86791 14.3698 8.6655 14.4864C8.46309 14.6029 8.2336 14.6643 8.00001 14.6643C7.76643 14.6643 7.53694 14.6029 7.33453 14.4864C7.13212 14.3698 6.96389 14.2021 6.84668 14" stroke="#3457D5" stroke-linecap="round" stroke-linejoin="round"/>
<path d="M11.7668 6.43343C13.2395 6.43343 14.4334 5.23952 14.4334 3.76676C14.4334 2.29401 13.2395 1.1001 11.7668 1.1001C10.294 1.1001 9.1001 2.29401 9.1001 3.76676C9.1001 5.23952 10.294 6.43343 11.7668 6.43343Z" fill="#3457D5" stroke="white"/>
</svg>
